# xmcd CD database file
#
# Track frame offsets:
#	150
#	31647
#	53990
#	69562
#	90207
#	116215
#	163787
#	184072
#	217327
#	235522
#	264535
#
# Disc length: 3699 seconds
#
# Revision: 0
# Processed by: cddbd v1.4PL0 Copyright (c) Steve Scherf et al.
# Submitted via: CDex 1.50Beta3
#
DISCID=940e710b
DTITLE=Mark Murphy - Another Vision
DYEAR=1992
DGENRE=Jazz
TTITLE0=The Masquerade Is Over
TTITLE1=I Wish, I Knew/A Ghost Of A Chance
TTITLE2=The More I See You
TTITLE3=People Will Try Again
TTITLE4=Nobody Else But Me
TTITLE5=Weaver Of Dreams
TTITLE6=Quiet Now
TTITLE7=Speak Low
TTITLE8=Love Locked Out
TTITLE9=Pieces Of Dreams/You Must Believe In Spring
TTITLE10=Epilogue/Never Never Land
EXTD=YEAR: 1992
EXTT0=
EXTT1=
EXTT2=
EXTT3=
EXTT4=
EXTT5=
EXTT6=
EXTT7=
EXTT8=
EXTT9=
EXTT10=
PLAYORDER=
